<svg width="22" height="23" viewBox="0 0 22 23" fill="none" xmlns="http://www.w3.org/2000/svg">
<path d="M21.3944 18.4865L13.915 11.0071L21.3944 3.52771C22.2019 2.72021 22.2019 1.4202 21.3944 0.612703C20.5869 -0.194794 19.2869 -0.194794 18.4794 0.612703L11 8.09207L3.52063 0.612703C2.71313 -0.194794 1.41312 -0.194794 0.605623 0.612703C-0.201874 1.4202 -0.201874 2.72021 0.605623 3.52771L8.08499 11.0071L0.605623 18.4865C-0.201874 19.2939 -0.201874 20.594 0.605623 21.4015C1.41312 22.209 2.71313 22.209 3.52063 21.4015L11 13.9221L18.4794 21.4015C19.2869 22.209 20.5869 22.209 21.3944 21.4015C22.1961 20.594 22.1961 19.2882 21.3944 18.4865Z" fill="black"/>
</svg>
