<svg width="38" height="32" fill="none" xmlns="http://www.w3.org/2000/svg"><path d="M29.462 30.214l-.03-.003h-.03a.971.971 0 01-.505-.153l-8.407-6.174-.594-.437-.534.509-4.676 4.456-.013.012-.012.012a.273.273 0 01-.195.083h-.027l-.026.002a.397.397 0 01-.403-.275l-.003-.01-3.317-9.964-.143-.43-.432-.134-8.24-2.558-.023-.007-.023-.006a.293.293 0 01-.22-.263.335.335 0 01.232-.33l.02-.006.019-.008a18750.18 18750.18 0 0125.455-9.452c2.838-1.05 4.972-1.838 6.403-2.362A305.027 305.027 0 0135.711 2a.397.397 0 01.153.09l.009.009.009.007a.253.253 0 01.083.18L30.272 29.55l-.004.02-.003.019a.747.747 0 01-.803.624z" stroke="#000" stroke-width="2.5"/><path fill-rule="evenodd" clip-rule="evenodd" d="M13.088 16.652l2.49 6.912.575-4.372c10.307-7.776 15.47-11.75 15.47-11.75a.259.259 0 000-.104c0-.277-.164-.277-.473-.277-.082 0-6.103 3.197-18.062 9.59z" fill="#000"/></svg>