<svg width="30" height="30" fill="none" xmlns="http://www.w3.org/2000/svg"><circle cx="15" cy="15" r="14.5" fill="#000" stroke="#000"/><g clip-path="url(#clip0_63899_11)"><path d="M11.389 21.496l.092.05a8.064 8.064 0 003.891.994c4.447 0 8.047-3.575 8.047-7.98s-3.6-7.98-8.047-7.98c-4.447 0-8.048 3.575-8.048 7.98 0 1.508.422 2.917 1.154 4.12l.06.098-.037.11-1.34 3.95 4.127-1.31.1-.032z" fill="#000" stroke="#fff"/><path d="M14.158 12.534a.62.62 0 01.017.583 6.171 6.171 0 00-.026.051 1.416 1.416 0 01-.214.34l-.086.102-.005.006a3.82 3.82 0 01-.231.264.774.774 0 00-.057.06c-.013.014-.012.025.006.051.116.197.513.838 1.095 1.353.624.552 1.154.78 1.449.908h.002c.06.027.11.048.15.068.074.036.112.04.112.04v-.001s.017-.011.035-.032c.123-.14.506-.586.632-.774.096-.143.222-.243.392-.262a.813.813 0 01.362.064h.001c.11.04.425.188.72.33a75.313 75.313 0 01.805.39l.008.003.003.002c.059.028.116.056.16.08a.6.6 0 01.234.202v.002a.533.533 0 01.063.23 1.62 1.62 0 01-.004.258 2.821 2.821 0 01-.157.696c-.115.319-.429.59-.718.776-.293.188-.638.336-.884.358-.048.004-.076.011-.119.021a1.33 1.33 0 01-.52.042c-.346-.033-.897-.18-1.945-.59-1.095-.427-1.979-1.193-2.596-1.858a10.269 10.269 0 01-.94-1.176l-.051-.075-.011-.015a2.894 2.894 0 00-.019-.028l-.007-.01a5.201 5.201 0 01-.482-.767c-.206-.4-.41-.936-.41-1.494a2.5 2.5 0 01.747-1.83l.04-.042a1.01 1.01 0 01.733-.336c.078 0 .154.005.22.01h.002a2.775 2.775 0 00.204.006.53.53 0 01.28.039c.165.071.286.226.382.456l.22.529.143.344a82.818 82.818 0 00.255.606l.007.014.002.005v.001z" fill="#fff"/></g><defs><clipPath id="clip0_63899_11"><path fill="#fff" transform="translate(6 6)" d="M0 0h18v18H0z"/></clipPath></defs></svg>