<svg width="31" height="31" fill="none" xmlns="http://www.w3.org/2000/svg"><g clip-path="url(#clip0_63806_2)" stroke="#000" stroke-width="2"><path d="M9.28 26.688l.16.087a13.888 13.888 0 006.7 1.71C23.8 28.486 30 22.33 30 14.744 30 7.156 23.798 1 16.14 1 8.483 1 2.28 7.156 2.28 14.743c0 2.596.727 5.024 1.988 7.094l.104.17-.064.188L2 29l7.107-2.257.173-.055z"/><path d="M14.05 11.253c.114.23.236.592.028 1.003l-.044.09h0c-.09.184-.179.365-.368.584-.044.05-.094.111-.148.176l-.009.01v.002c-.13.155-.278.333-.398.452a1.377 1.377 0 00-.098.103c-.023.025-.02.045.01.09.2.339.884 1.443 1.886 2.329a8.695 8.695 0 002.496 1.563l.004.002c.103.045.19.082.257.116a.601.601 0 00.194.068h0s.028-.02.06-.056c.212-.24.87-1.009 1.088-1.332.165-.246.383-.419.675-.452.242-.027.474.056.624.11l.002.001c.188.068.732.323 1.24.566a128.54 128.54 0 011.385.673l.014.006.006.003c.101.049.2.096.276.138.123.067.294.17.403.348v.003c.079.13.1.29.107.395.01.128.008.28-.006.446-.029.333-.11.752-.271 1.198-.198.55-.738 1.017-1.237 1.337-.504.324-1.097.578-1.522.616-.081.007-.13.02-.204.037h0a3.746 3.746 0 01-.18.041 2.292 2.292 0 01-.715.032c-.596-.058-1.546-.312-3.35-1.017-1.887-.736-3.408-2.055-4.472-3.2a17.734 17.734 0 01-1.618-2.025l-.09-.13-.017-.026a16.944 16.944 0 00-.045-.066h-.001a8.964 8.964 0 01-.83-1.32c-.353-.69-.704-1.611-.704-2.574 0-1.79.903-2.745 1.285-3.15h0l.07-.073c.42-.455.928-.578 1.261-.578.135 0 .266.008.379.016h.003c.117.007.212.013.298.013l.054-.002h0c.029-.002.07-.005.117-.005.097 0 .225.012.364.072.286.122.493.39.66.786l.378.91.246.593a141.618 141.618 0 00.44 1.044l.011.024.004.007.001.003z"/></g><defs><clipPath id="clip0_63806_2"><path fill="#fff" d="M0 0h31v31H0z"/></clipPath></defs></svg>