<svg width="32" height="32" fill="none" xmlns="http://www.w3.org/2000/svg"><g clip-path="url(#clip0_63806_5)" stroke="#000"><path d="M10.075 26.687l.153.083a13.313 13.313 0 006.423 1.64c7.34 0 13.284-5.9 13.284-13.173 0-7.272-5.944-13.173-13.284-13.173-7.34 0-13.285 5.901-13.285 13.173 0 2.489.696 4.816 1.905 6.8l.099.163-.061.18-2.212 6.523 6.812-2.164.166-.052z" stroke-width="3"/><path d="M14.502 11.616c.12.237.245.61.03 1.036l-.045.092h0a2.54 2.54 0 01-.38.604 6.931 6.931 0 00-.153.181l-.009.01v.002c-.134.16-.287.345-.411.467a1.403 1.403 0 00-.1.106c-.025.026-.023.047.01.093.205.35.911 1.49 1.946 2.404a8.98 8.98 0 002.576 1.614l.005.002c.106.046.196.085.265.12.131.064.2.07.2.07h0s.029-.02.062-.058c.219-.248.899-1.041 1.123-1.375.17-.254.396-.433.697-.467.25-.028.49.058.644.114h.002c.195.07.755.334 1.28.585.54.258 1.083.524 1.268.616l.162.078.014.007.007.003c.104.05.206.1.285.143.126.068.303.176.415.359l.001.002c.08.134.102.3.11.409.01.132.009.289-.006.46-.03.344-.115.776-.28 1.236-.205.568-.762 1.05-1.277 1.38-.52.335-1.133.597-1.571.637-.084.007-.135.02-.21.038h-.001a3.54 3.54 0 01-.186.042c-.192.04-.416.064-.738.033-.615-.06-1.595-.322-3.458-1.05-1.947-.76-3.518-2.121-4.616-3.303a18.288 18.288 0 01-1.762-2.224l-.019-.027a4.419 4.419 0 00-.034-.05l-.013-.018v-.001a9.251 9.251 0 01-.856-1.361c-.365-.713-.727-1.664-.727-2.658 0-1.848.932-2.834 1.326-3.25h0l.072-.077c.434-.47.958-.597 1.302-.597.139 0 .274.01.391.017h.004c.12.008.218.014.307.014.01 0 .022 0 .056-.003h0c.03-.002.073-.005.12-.005.1 0 .233.012.377.074.294.127.508.403.68.811l.39.94.254.613a137.376 137.376 0 00.455 1.077l.011.025.004.007.001.003z" stroke-width="2"/></g><defs><clipPath id="clip0_63806_5"><path fill="#fff" d="M0 0h32v32H0z"/></clipPath></defs></svg>