<svg width="36" height="36" fill="none" xmlns="http://www.w3.org/2000/svg"><path d="M10.473 31.187l.188.103a16.333 16.333 0 007.877 2.01c9.003 0 16.293-7.235 16.293-16.15C34.831 8.234 27.541 1 18.538 1S2.244 8.235 2.244 17.15c0 3.05.854 5.904 2.337 8.337l.121.2-.075.22-2.713 7.997 8.355-2.652.204-.065z" stroke="#363636" stroke-width="2"/><path d="M16.315 13.068c.134.267.275.687.034 1.165l-.051.104h0a2.828 2.828 0 01-.428.679l-.172.204-.01.012v.002c-.151.18-.323.387-.463.525a1.562 1.562 0 00-.113.12c-.027.029-.024.052.012.104.231.393 1.026 1.675 2.19 2.704a10.105 10.105 0 002.898 1.816l.005.002c.12.052.22.096.299.134a.69.69 0 00.225.08h0s.032-.023.07-.065c.246-.279 1.01-1.172 1.262-1.547.192-.286.446-.487.784-.525.282-.032.552.065.725.128h.003c.218.08.85.376 1.44.658a147.45 147.45 0 011.608.781l.016.008.008.003c.116.057.232.112.32.16.142.078.342.198.467.405l.002.002c.09.151.114.338.123.46.012.149.01.325-.007.518a5.646 5.646 0 01-.315 1.39c-.23.639-.857 1.182-1.436 1.554-.586.375-1.275.67-1.768.715a1.397 1.397 0 00-.236.043h-.001c-.054.013-.118.029-.209.047a2.661 2.661 0 01-.83.037c-.693-.067-1.795-.362-3.891-1.18-2.19-.856-3.957-2.387-5.192-3.717a20.587 20.587 0 01-1.983-2.502l-.021-.03a7.43 7.43 0 00-.038-.056l-.014-.02-.001-.002c-.112-.147-.55-.726-.963-1.531-.411-.803-.818-1.872-.818-2.99 0-2.079 1.049-3.188 1.492-3.657h0l.08-.086a2.018 2.018 0 011.466-.671c.155 0 .308.01.44.018h.003c.136.009.246.016.346.016.01 0 .025 0 .063-.003h0c.033-.002.082-.005.135-.005.113 0 .262.013.424.083.331.142.572.453.765.912a302.828 302.828 0 01.725 1.746 159.14 159.14 0 00.472 1.123l.04.09.012.028.004.008.002.003z" stroke="#363636" stroke-width="2"/></svg>